<?xml version="1.0" encoding="utf-8"?>
<!-- Generator: Adobe Illustrator 22.1.0, SVG Export Plug-In . SVG Version: 6.00 Build 0)  -->
<svg version="1.1" id="Layer_1" xmlns="http://www.w3.org/2000/svg" xmlns:xlink="http://www.w3.org/1999/xlink" x="0px" y="0px"
	 viewBox="0 0 3897 1329.4" style="enable-background:new 0 0 3897 1329.4;" xml:space="preserve">
<style type="text/css">
	.st0{fill:#FFFFFF;}
	.st1{fill:#2C2D2C;}
	.st2{fill:#191919;}
	.st3{fill:#DD8726;}
	.st4{fill:#F1F2F2;}
	.st5{fill:#F99C30;}
	.st6{stroke:#F99C30;stroke-width:5;stroke-miterlimit:10;}
	.st7{fill:#1C1B1C;}
	.st8{display:none;}
	.st9{display:inline;}
	.st10{display:inline;clip-path:url(#SVGID_2_);}
	.st11{fill:#161516;}
	.st12{fill:#262626;}
	.st13{fill:none;stroke:#000000;stroke-width:0.6333;stroke-miterlimit:10;}
	.st14{fill:none;stroke:#000000;stroke-miterlimit:10;}
	.st15{fill:#F99C30;stroke:#FFFFFF;stroke-width:4;stroke-linejoin:round;stroke-miterlimit:10;}
	.st16{fill:none;stroke:#000000;stroke-width:0.1827;stroke-miterlimit:10;}
	
		.st17{clip-path:url(#SVGID_4_);fill:none;stroke:#FFFFFF;stroke-width:2.6297;stroke-linecap:round;stroke-linejoin:round;stroke-miterlimit:10;}
	.st18{fill:#F99C30;stroke:#000000;stroke-width:4;stroke-linejoin:round;stroke-miterlimit:10;}
	
		.st19{clip-path:url(#SVGID_6_);fill:none;stroke:#FFFFFF;stroke-width:2.6297;stroke-linecap:round;stroke-linejoin:round;stroke-miterlimit:10;}
	.st20{stroke:#F99C30;stroke-width:3.3571;stroke-miterlimit:10;}
	.st21{fill:#F99C30;stroke:#000000;stroke-width:2.6857;stroke-linejoin:round;stroke-miterlimit:10;}
	
		.st22{clip-path:url(#SVGID_8_);fill:none;stroke:#FFFFFF;stroke-width:1.7656;stroke-linecap:round;stroke-linejoin:round;stroke-miterlimit:10;}
	.st23{fill:none;stroke:#000000;stroke-width:12;stroke-linecap:round;stroke-linejoin:round;stroke-miterlimit:10;}
	
		.st24{clip-path:url(#SVGID_10_);fill:none;stroke:#F99C30;stroke-width:1.8039;stroke-linecap:round;stroke-linejoin:round;stroke-miterlimit:10;}
	
		.st25{clip-path:url(#SVGID_12_);fill:none;stroke:#F99C30;stroke-width:1.5358;stroke-linecap:round;stroke-linejoin:round;stroke-miterlimit:10;}
	
		.st26{clip-path:url(#SVGID_14_);fill:none;stroke:#F99C30;stroke-width:2.0321;stroke-linecap:round;stroke-linejoin:round;stroke-miterlimit:10;}
	
		.st27{clip-path:url(#SVGID_16_);fill:none;stroke:#F99C30;stroke-width:7.9403;stroke-linecap:round;stroke-linejoin:round;stroke-miterlimit:10;}
	
		.st28{clip-path:url(#SVGID_18_);fill:none;stroke:#F99C30;stroke-width:2.8515;stroke-linecap:round;stroke-linejoin:round;stroke-miterlimit:10;}
	
		.st29{clip-path:url(#SVGID_20_);fill:none;stroke:#000000;stroke-width:2.8515;stroke-linecap:round;stroke-linejoin:round;stroke-miterlimit:10;}
	
		.st30{clip-path:url(#SVGID_22_);fill:none;stroke:#F99C30;stroke-width:2.8515;stroke-linecap:round;stroke-linejoin:round;stroke-miterlimit:10;}
	
		.st31{clip-path:url(#SVGID_24_);fill:none;stroke:#000000;stroke-width:2.8515;stroke-linecap:round;stroke-linejoin:round;stroke-miterlimit:10;}
	.st32{stroke:#F99C30;stroke-width:2.6857;stroke-linejoin:round;stroke-miterlimit:10;}
	
		.st33{clip-path:url(#SVGID_26_);fill:none;stroke:#FFFFFF;stroke-width:1.7656;stroke-linecap:round;stroke-linejoin:round;stroke-miterlimit:10;}
	.st34{fill:none;stroke:#000000;stroke-width:10;stroke-miterlimit:10;}
	
		.st35{clip-path:url(#SVGID_28_);fill:none;stroke:#FFFFFF;stroke-width:1.7656;stroke-linecap:round;stroke-linejoin:round;stroke-miterlimit:10;}
	
		.st36{clip-path:url(#SVGID_30_);fill:none;stroke:#F99C30;stroke-width:3.1297;stroke-linecap:round;stroke-linejoin:round;stroke-miterlimit:10;}
	
		.st37{clip-path:url(#SVGID_32_);fill:none;stroke:#FFFFFF;stroke-width:2.6523;stroke-linecap:round;stroke-linejoin:round;stroke-miterlimit:10;}
	
		.st38{clip-path:url(#SVGID_34_);fill:none;stroke:#FFFFFF;stroke-width:1.4327;stroke-linecap:round;stroke-linejoin:round;stroke-miterlimit:10;}
	
		.st39{clip-path:url(#SVGID_34_);fill:none;stroke:#FFFFFF;stroke-width:1.2669;stroke-linecap:round;stroke-linejoin:round;stroke-miterlimit:10;}
	
		.st40{clip-path:url(#SVGID_36_);fill:none;stroke:#FFFFFF;stroke-width:2.6297;stroke-linecap:round;stroke-linejoin:round;stroke-miterlimit:10;}
	
		.st41{clip-path:url(#SVGID_38_);fill:none;stroke:#FFFFFF;stroke-width:2.6297;stroke-linecap:round;stroke-linejoin:round;stroke-miterlimit:10;}
	.st42{fill:none;stroke:#F99C30;stroke-width:6.6495;stroke-miterlimit:10;}
	.st43{fill:none;stroke:#FFFFFF;stroke-width:6.0164;stroke-miterlimit:10;}
	.st44{fill:#F99C30;stroke:#000000;stroke-width:2.0591;stroke-linejoin:round;stroke-miterlimit:10;}
	
		.st45{clip-path:url(#SVGID_40_);fill:none;stroke:#FFFFFF;stroke-width:1.3537;stroke-linecap:round;stroke-linejoin:round;stroke-miterlimit:10;}
	
		.st46{clip-path:url(#SVGID_42_);fill:none;stroke:#FFFFFF;stroke-width:1.3537;stroke-linecap:round;stroke-linejoin:round;stroke-miterlimit:10;}
	.st47{fill:none;stroke:#F99C30;stroke-width:3.4231;stroke-miterlimit:10;}
	.st48{fill:none;stroke:#FFFFFF;stroke-width:3.0972;stroke-miterlimit:10;}
	
		.st49{clip-path:url(#SVGID_44_);fill:none;stroke:#FFFFFF;stroke-width:1.3537;stroke-linecap:round;stroke-linejoin:round;stroke-miterlimit:10;}
	
		.st50{clip-path:url(#SVGID_46_);fill:none;stroke:#FFFFFF;stroke-width:1.3537;stroke-linecap:round;stroke-linejoin:round;stroke-miterlimit:10;}
	.st51{stroke:#F99C30;stroke-width:2.0591;stroke-linejoin:round;stroke-miterlimit:10;}
	
		.st52{clip-path:url(#SVGID_48_);fill:none;stroke:#F99C30;stroke-width:1.3537;stroke-linecap:round;stroke-linejoin:round;stroke-miterlimit:10;}
	
		.st53{clip-path:url(#SVGID_50_);fill:none;stroke:#F99C30;stroke-width:1.3537;stroke-linecap:round;stroke-linejoin:round;stroke-miterlimit:10;}
	.st54{fill:none;stroke:#000000;stroke-width:7.4691;stroke-miterlimit:10;}
	.st55{fill:none;stroke:#F99C30;stroke-width:3.0972;stroke-miterlimit:10;}
	
		.st56{clip-path:url(#SVGID_52_);fill:none;stroke:#F99C30;stroke-width:5.7517;stroke-linecap:round;stroke-linejoin:round;stroke-miterlimit:10;}
	
		.st57{clip-path:url(#SVGID_54_);fill:none;stroke:#F99C30;stroke-width:1.2369;stroke-linecap:round;stroke-linejoin:round;stroke-miterlimit:10;}
	.st58{fill:none;stroke:#000000;stroke-width:22.9639;stroke-miterlimit:10;}
	.st59{fill:#F99C30;stroke:#000000;stroke-width:17.7297;stroke-linejoin:round;stroke-miterlimit:10;}
	
		.st60{clip-path:url(#SVGID_56_);fill:none;stroke:#FFFFFF;stroke-width:11.6557;stroke-linecap:round;stroke-linejoin:round;stroke-miterlimit:10;}
	.st61{fill:none;stroke:#FFFFFF;stroke-width:22.1621;stroke-miterlimit:10;}
	
		.st62{clip-path:url(#SVGID_58_);fill:none;stroke:#F99C30;stroke-width:6.947;stroke-linecap:round;stroke-linejoin:round;stroke-miterlimit:10;}
</style>
<g>
	<g>
		<path class="st5" d="M978.3,980.6c-44.7,0.2-62.9-19.4-54.5-58.9l72.1-339.3c8.3-39.3,34.9-58.9,79.6-58.9H1238
			c34.8,0,58.1,0,58.1,0s-46.2,107.7-81,107.7h-95.5l-14,65.7h81.9c34.8,0,48.3,18.1,40.6,54.2c-7.7,36.1-28.9,54.2-63.7,54.2h-81.9
			l-24.8,116.5C1049.6,960.7,1023.1,980.4,978.3,980.6z"/>
		<path class="st5" d="M1549.2,786.2l48.3,88c7.1,13.1,9.1,27.1,6,42c-3.2,14.9-15.3,29.3-36.3,43.2c-21,13.9-39.1,20.8-54.2,20.8
			c-15.1,0-27.5-9.1-37.2-27.4l-78.1-145.6l-24.3,114.5c-8.3,39.3-34.9,58.9-79.6,58.9c-24.1,0-40.5-5.7-49.2-17.2
			c-7.4-9.8-9.2-23.7-5.3-41.8l72.1-339.3c8.3-39.3,34.9-58.9,79.6-58.9h151.7c37.5,0,65.6,14.4,84.3,43.2
			c18.7,28.8,24.6,59.7,17.6,92.6C1632.1,718.2,1600.3,760.5,1549.2,786.2z M1438.6,615.6l-22.2,104.3h38.6
			c37.9,0,60.6-17.4,68-52.1c7.4-34.8-7.9-52.1-45.8-52.1H1438.6z"/>
		<path d="M2005.3,856.6c-9.2,43.1-34.3,75.1-75.4,96c-41.1,20.9-85,31.3-131.8,31.3c-46.7,0-86.2-10.4-118.5-31.3
			c-32.2-20.9-43.8-52.9-34.6-96l58.3-274.3c8.3-39.3,34.9-58.9,79.6-58.9c44.7,0,62.9,19.6,54.5,58.9L1783.3,837
			c-5.5,25.7,7.1,38.6,37.8,38.6c30.7,0,48.8-12.9,54.3-38.6l54.1-254.6c8.3-39.3,34.9-58.9,79.6-58.9c44.7,0,62.9,19.6,54.5,58.9
			L2005.3,856.6z"/>
		<path d="M2159.4,921.7c-8.3,39.3-34.9,58.9-79.6,58.9c-44.7,0-62.9-19.6-54.5-58.9l72.1-339.3c8.3-39.3,34.9-58.9,79.6-58.9
			c44.7,0,62.9,19.6,54.5,58.9L2159.4,921.7z"/>
		<path d="M2505.9,631.1L2444,922.3c-8.3,39.3-34.9,58.9-79.6,58.9c-44.7,0-62.9-19.6-54.5-58.9l61.9-291.2h-67.7
			c-36.1,0-50.4-17.9-42.7-53.8c7.6-35.9,29.5-53.8,65.6-53.8h270.2c36.1,0,50.4,17.9,42.7,53.8c-7.6,35.9-29.5,53.8-65.6,53.8
			H2505.9z"/>
		<path class="st5" d="M2968.7,845.1c-19.2,90.3-76.6,135.4-172.4,135.4h-146.3c-44.7,0-62.9-19.6-54.5-58.9l72.1-339.3
			c8.3-39.3,34.9-58.9,79.6-58.9h136.1c91.2,0,129.1,36.3,113.6,109c-10.2,47.9-35.5,81-76,99.6
			C2963.9,755.1,2979.8,792.8,2968.7,845.1z M2836.2,837.7c7-33-6-49.4-38.9-49.4H2758l-21,98.9h40.6
			C2809.7,887.1,2829.2,870.6,2836.2,837.7z M2864.6,659.6c6.2-29.3-5.3-44-34.7-44h-35.2l-18.7,88h36.6
			C2841,703.6,2858.3,688.9,2864.6,659.6z"/>
		<path d="M3684.8,631.1l-61.9,291.2c-8.3,39.3-34.9,58.9-79.6,58.9c-44.7,0-62.9-19.6-54.5-58.9l61.9-291.2h-67.7
			c-36.1,0-50.4-17.9-42.7-53.8c7.6-35.9,29.5-53.8,65.6-53.8H3776c36.1,0,50.4,17.9,42.7,53.8c-7.6,35.9-29.5,53.8-65.6,53.8
			H3684.8z"/>
		<path d="M3366,550.9c-32.2-20.9-71.7-31.3-118.5-31.3c-46.7,0-90.6,10.4-131.8,31.3c-41.1,20.9-66.3,52.9-75.4,96l-58.3,274.3
			c-8.3,39.3,9.8,58.9,54.5,58.9c44.7,0,71.2-19.6,79.6-58.9l28.2-132.9h92.1l-28.2,132.9c-8.3,39.3,9.8,58.9,54.5,58.9
			c44.7,0,71.2-19.6,79.6-58.9l58.3-274.3C3409.8,603.8,3398.3,571.8,3366,550.9z M3262.4,666.5l-7.9,37.1h-92.1l7.9-37.1
			c5.5-25.7,23.6-38.6,54.3-38.6C3255.3,627.9,3267.9,640.8,3262.4,666.5z"/>
		<polyline class="st5" points="1311.5,582.4 1226.8,980.6 1296.1,980.6 		"/>
		<polyline class="st5" points="953.6,781.7 912,980.6 978.3,980.6 		"/>
		<polyline points="1821.8,655.8 1850.8,523.5 1782.6,523.5 		"/>
		<polyline points="2047.9,656.1 2077,523.8 2008.8,523.8 		"/>
		<polyline points="2215.8,656.1 2244.8,523.8 2176.6,523.8 		"/>
		<polyline points="2639.3,580.1 2651.7,523.5 2583.6,523.5 		"/>
		<polyline points="2262.1,574.5 2249.7,631.1 2317.8,631.1 		"/>
		<polyline points="2041.5,848.2 2012.4,980.6 2080.6,980.6 		"/>
		<polyline class="st5" points="2611.7,848.2 2582.7,980.6 2650.8,980.6 		"/>
		<polyline class="st5" points="2680.2,523.5 2747.5,523.5 2665,594.6 2680.2,523.5 		"/>
		<polyline points="2326.3,848.9 2297.2,981.3 2365.4,981.3 		"/>
		<polyline points="2997.5,848.9 2968.5,981.3 3036.6,981.3 		"/>
		<polyline points="3223.7,848.9 3194.7,981.3 3262.8,981.3 		"/>
		<polyline points="3818.1,580.1 3830.6,523.5 3762.4,523.5 		"/>
		<polyline points="3440.9,574.5 3428.5,631.1 3496.7,631.1 		"/>
		<polyline points="3505.1,848.9 3476.1,981.3 3544.2,981.3 		"/>
	</g>
	<path class="st11" d="M3713.5,1037.4l-116.3,1.1l-116.3,0.9l-232.7,1.7l0.3,0c-9.9,1-19.6,1.3-29,2.9c-2.4,0.4-4.5,0.9-7.2,1.4
		c-2.6,0.4-5.2,0.7-7.9,0.7c-5.4,0.1-10.8-0.9-15.7-2.6c-4.9-1.7-9.3-3.7-13.6-4.7c-4.3-1.1-8.6-1.3-12.9-0.7
		c-4.1,0.5-7.9,2.4-12.5,4.6c-2.3,1.1-4.9,2.2-7.6,2.9c-2.7,0.7-5.6,1-8.4,1c-1.4,0-2.6-0.7-3.4-1.7l0,0c-3.1-4.2-7.4-6.6-12.5-7.1
		l1.8-0.2c-2.5,0.8-4.3,2.2-5.6,4.3c-0.7,1-1.7,1.7-2.8,2l-0.1,0c-1.3,0.3-2.4,0.9-3.8,1.8c-1.4,1-3,2.4-5.1,3.8
		c-2.1,1.4-4.7,2.5-7.2,3c-0.6,0.2-1.3,0.2-1.9,0.3l-0.9,0.1c-0.2,0-1,0-1.5-0.1c-0.5-0.1-0.5-0.1-0.7-0.2c-1.4-0.4-2.3-0.7-3.3-1
		c-3.9-1.3-7.8-2.6-11.5-3.7c-0.9-0.3-1.8-0.5-2.6-0.7c-0.5-0.1-0.4-0.1-0.9-0.1l-1.4-0.1c-1.9-0.1-3.8-0.1-5.8-0.1
		c-4,0-8,0.2-12.1,0.2c-2.1,0-4.1,0.1-6.3,0c-1.1,0-2.1,0-3.3-0.1l-0.8-0.1l-0.2,0l-0.5-0.1l-0.4-0.1l-1.6-0.2l-12.1-2l-6.1-1.1
		l-3.1-0.6l-0.5-0.1l-0.3-0.1l-0.3-0.1l-0.2-0.1c-0.3-0.1-0.6-0.3-0.9-0.4c-0.7,4-3.7-10.3-0.1-8.7c0.4-0.3,0.9-0.5,1.5-0.6
		c0.6-0.1,1.1-0.1,1-0.1l0.1,0l0.4,0l0.4,0l0.5,0l1.6,0.2c2.8,0.3,4.7,2.8,4.4,5.6c-0.3,2.2-1.9,3.9-4,4.3l-0.1,0
		c-11.6,2.3-23.3,4-35.3,4.6c-6,0.3-12,0.3-18.2-0.4c-6.1-0.7-12.6-1.8-18.9-5.7l8.3-5.3c0.3,1.7,0,4.2-1.2,6
		c-1.1,1.8-2.6,2.8-3.8,3.5c-2.5,1.3-4.5,1.7-6.4,2c-3.8,0.6-7.3,0.6-10.7,0.5c-6.8-0.2-13.4-0.9-20-1.8c-6.5-0.9-13-1.9-19.4-3
		l-9.6-1.7l-4.7-0.8c-1.5-0.2-3.2-0.5-4.3-0.6l-5-3.8c0.3,0.8,0.9,1.9,1.9,2.6c0.7,0.7,2.5,1.1,2.2,1l0.3,0.1l0.3,0c0,0,0,0-0.1,0
		l-0.4,0l-1.1,0l-2.3,0l-4.8,0.1l-9.7,0.3l-19.4,0.7l-38.9,1.4c-13.4,0.3-26.3-0.8-38.9-0.8c-12.6,0-24.9,1.1-36.5,4.7l-8-7.5
		c5.1,13.4,3.8,4.9,4.5,7.5l0.3,0.1c0.1,0,0,0,0,0l-0.3,0l-0.9-0.1l-2.1-0.2l-4.3-0.3l-8.6-0.5l-17.3-1c-11.6-0.6-23.1-1.2-34.7-1.6
		l-8.6-0.3l-2,0l-0.8,0c-0.3,0,0.1,0,0.1,0c0.2-0.1-0.8,0.3-2.1,1.1c-0.7,0.4-1.5,0.8-2.7,1.4c-0.6,0.2-1.4,0.5-2.4,0.7
		c-0.5,0.1-1.2,0.1-1.7,0.2l-0.7,0c-1.8,0-3.3-0.2-4.9-0.3c-3-0.3-5.8-0.6-8.4-0.8l-1.9-0.1l-1.9,0l-4.5,0c-3,0-6-0.1-8.9-0.2
		l-17.4-0.7c-5.7-0.2-11.3-0.2-16.8,0.1c-5.6,0.3-11,1-17.2,1.6c-1.6,0.1-3.3,0.2-5.2,0.1c-1.9-0.1-4.6-0.4-7.3-2
		c-2.8-1.6-4.7-4.1-5.6-6.1c-1-2-1.6-3.7-2-5.4c-0.9-3.3-1.5-6.2-2-9.2c-0.5-2.9-1-6.1-1.3-9.1c-1.3-12.3-0.8-24.3,0-36l1.3-17.4
		l1.2-17.3c6.3-93,18.1-177.9,31.8-269.7l15.5,2.7c-16.8,85.5-31.3,164.4-53.5,249.2c-5.5,21.2-11.5,42.3-18,63.3l-4.8,15.5
		c-1.5,5-2.9,10.5-4.7,16c-1.9,5.5-4.1,11.3-8.1,16.9c-2,2.8-4.5,5.5-7.7,7.8c-0.8,0.6-1.6,1.1-2.5,1.5c-0.4,0.3-0.9,0.5-1.3,0.7
		c-0.6,0.2-0.6,0.3-2,0.8c-2,0.6-2.6,0.5-3.6,0.7c-0.8,0.1-1.7,0.2-2.4,0.2c-6,0.3-11.4,0.2-17,0.2c-5.5-0.1-11.1-0.3-16.6-0.5
		l-8.3-0.4l-4.2-0.3l-2.2-0.2c-0.9-0.1-1.4-0.1-2.9-0.4c-5.1-1.3-7.8-3.5-10.3-5.1c-2.4-1.7-4.4-3.2-5.9-4c-1.5-0.8-1.6-0.4-0.8-0.6
		c0.3-0.2-0.3,0.2-1.9,1.3c-1.5,1.1-4,2.4-6.4,2.9c-0.6,0.1-1.2,0.3-1.7,0.3l-1.4,0.2l-1.8,0.2c-1.1,0.1-2.3,0.4-2.5,0.4
		c0,0-0.1,0,0,0l0.3-0.2c0.2-0.2,1.2-0.5,2.4-2.3c0.3-0.5,0.5-1,0.7-1.5c0.2-0.6,0.3-1.1,0.3-1.5c0.1-1,0-1.1,0-1
		c0,0.5,0.2,1.4-0.4,3.5c-0.3,0.9-0.8,1.9-1.4,2.8c-0.6,0.8-1.1,1.3-1.8,1.8c-1,0.7-2,1.2-2.5,1.4c-0.3,0.1-0.6,0.2-0.9,0.3
		l-0.6,0.2c-0.5,0.1-0.8,0.2-1.1,0.2l-0.9,0.1c-1,0.1-1.9,0.2-2.7,0.2c-3.2,0.2-6,0.1-8.8,0c-0.8,0-1.3,0-2.2-0.1
		c-0.9,0-1.8-0.1-2.6-0.2c-1.7-0.2-3.4-0.5-4.9-0.9c-6.3-1.5-11.2-3.6-15-4l2.9-0.1c-3.3,0.7-6.4,2-9.3,3.8l-0.1,0.1
		c-3.8,2.4-8.7,1.3-11.2-2.3c-1.2-1.7-2.6-3.1-3-3.3c-0.2-0.1,0.1,0.1,0.7,0.1c0.5,0,0.8-0.3,0.5-0.1l-0.4,0.2
		c-1.3,0.9-2.9,1.3-4.4,1.3c-0.3,0-1.2,0.1-2.2,0.3l-3.3,0.7c-2.4,0.5-4.9,1.2-8,1.6c-0.8,0.1-1.6,0.2-2.6,0.2l-1.9,0.1l-3.8,0.1
		c-2.6,0-5.1,0-7.7,0c-5.1-0.1-10.3-0.4-15.5-0.9c-2.6-0.3-5.1-0.6-7.7-0.9l-1.9-0.3c-0.9-0.2-1.8-0.3-2.6-0.5
		c-1.6-0.4-3-0.9-4.2-1.3c-5-1.8-8.7-3.1-11.9-3.2c-3.6-0.2-7.9,0.5-12.3,1.6c-8.9,2.1-17.8,5.7-27.9,8.7l-10-10.9
		c3.3,17.7,8.2,8.7,6.2,11.1l0.5,0.1l0.2,0c0,0,0,0,0,0l-0.3,0l-0.7,0l-1.4-0.1l-2.9-0.1l-5.9-0.2l-11.9-0.3l-23.8-0.6l-47.6-1.1
		l-11.9-0.3c-4-0.1-7.7-0.1-12.2-0.4l-23.7-1.5c-7.9-0.4-15.7-0.8-23.4-0.9c-3.9,0-7.7,0-11.4,0.2c-1.8,0.1-3.6,0.3-5.2,0.5
		c-0.7,0.1-1.5,0.3-1.8,0.4c-0.2,0-0.3,0.1,0,0c0.1,0,0.1-0.1,0.3-0.2c0.2-0.1,0.3-0.2,0.5-0.4c0.2-0.2,0.6-0.5,0.8-0.8
		c0.3-0.3,0.7-0.9,1-1.5l-8.3,4.5c-2.3-0.3-4.4-1-6.3-1.8c-1.8-0.8-3.4-1.7-4.8-2.5c-2.7-1.7-4.9-3.1-6.6-3.7
		c-0.9-0.4-1.6-0.5-2.3-0.7c-0.4,0-0.7-0.1-1.1-0.1l-0.5,0c-0.1,0-0.2,0-0.4,0c-0.9,0.1-2.5,0.8-4.6,2.1c-2.2,1.3-4.3,3.3-8.9,5.3
		c-0.6,0.2-1.2,0.5-1.9,0.6c-0.7,0.2-1.4,0.3-2.2,0.4l-1.2,0.1l-0.8,0l-1.4,0c-1.9-0.1-3.7-0.3-5.4-0.7c-6.8-1.3-12.4-3.9-16.7-4.6
		c-0.6-0.1-1-0.2-1.5-0.2c-0.3,0-1.3-0.1-0.3-0.1c-1,0.1-2.5,0.4-3.8,0.6l-8.4,1.5l-8.4,1.6l-2.1,0.4c-0.7,0.1-1.1,0.2-1.9,0.4
		c-1.3,0.3-2.6,0.7-4,1c-10.6,2.9-21.7,7.2-34,9.7c-3.1,0.6-6.2,1.1-9.4,1.4c-1.6,0.1-3.2,0.3-4.8,0.3c-0.8,0-1.6,0.1-2.5,0.1
		l-2.7-0.1c-3.7-0.2-8.1-1.4-11.8-3.6c-1.7-1.1-3.3-2.2-4.4-3.2c-1.2-0.9-2.2-1.8-3-2.4c-1.7-1.2-3.2-1.9-5.3-2.5
		c-2.2-0.7-4.2-0.8-6.1-0.8c-1.9,0.1-3.6,0.5-5.7,1.4c-2.1,0.9-4.5,2.2-7.3,3.6c-2.8,1.4-5.9,2.8-9.2,3.8c-1.8,0.6-3.1,0.8-4.6,1.2
		l-4.4,1.1c-5.9,1.3-11.8,2.4-17.7,3.2c-11.8,1.7-23.7,2.6-35.5,2.9c-23.6,0.6-47.2-0.9-70.5-3.9c-5.8-0.8-11.6-1.6-17.4-2.6
		c-2.9-0.5-5.8-1-8.7-1.6l-2.2-0.4l-1.1-0.2l-1.3-0.3c-1.7-0.4-3.4-0.9-5-1.5c-6.4-2.3-11.7-5.7-16.3-7.9c-2.3-1.1-4.5-1.9-6.6-2.4
		c-1.8-0.5-3.8-0.5-6.4-0.3c-2.6,0.2-5.5,0.6-8.9,0.8c-1.7,0.1-3.5,0.1-5.3-0.1c-0.9-0.1-1.9-0.2-2.9-0.4c-0.9-0.2-1.7-0.3-2.6-0.6
		c-3.4-0.8-6.9-2.3-9.5-3.6c-2.6-1.3-4.3-1.9-6.4-2.3c-1-0.2-2.1-0.3-3.3-0.4l-1.7,0c-0.4,0-0.8,0-1.3,0.1c-2.1,0.3-4.7,1-7.4,1.8
		c-2.7,0.8-5.6,1.7-8.9,2.4c-1.6,0.4-3.4,0.6-5.2,0.8c-1.6,0.1-3.2,0.2-4.8,0.2c-3.2,0-6.4-0.2-9.2-0.4c-2.8-0.2-5.3-0.3-7.6,0
		c-1.2,0.1-2.4,0.3-3.6,0.5c-0.6,0.1-1.2,0.3-1.8,0.4l-0.4,0.1c0,0,0.1,0,0.1,0c0.1,0,0.1,0,0,0c-0.2,0.1-1.1,0.8-2.1,1.7
		c-1.1,0.9-2.3,2.2-4.4,3.5c-1.1,0.6-2.4,1.3-4.2,1.7c-0.5,0.1-0.7,0.1-0.9,0.2l-0.7,0.1l-1.4,0.2c-1.9,0.1-3.8,0.2-5.6,0
		c-3.8-0.3-7.1-1.4-9.9-2.2c-2.8-0.9-5.1-1.6-7.3-1.9c-0.5-0.1-1.1-0.1-1.6-0.2l-1.9-0.1c-1.3,0-2.6-0.1-4,0c-5.4,0.1-11,0.7-17,1.1
		c-6,0.4-12.4,0.4-18.8-0.5c-6.4-1-12.1-2.6-17.6-3.9c-5.5-1.3-10.8-2.5-15.8-2.7c-4.9-0.2-9.6,0.7-15.1,2.2
		c-5.4,1.5-11.8,3.3-18.5,3.5c-6.3,0.2-12.7-0.4-18.7-1.5c-6-1.1-11.7-2.6-17.2-3.9c-5.5-1.3-10.7-2.1-16-2.3
		c-2.6-0.1-5.2,0-7.8,0.2l-4.1,0.4c-1.6,0.2-3.1,0.4-4.7,0.5c-12.6,0.9-24.4-1.2-35.2-1.2c-1.4,0-2.7,0-4.1,0.1
		c-1.3,0.1-2.8,0.1-3.8,0.3c-2.3,0.3-4.6,0.9-7.1,1.8c-4.9,1.7-10.5,4.5-17.2,6c-0.9,0.2-1.7,0.3-2.6,0.4c-1,0.1-1.9,0.2-2.9,0.2
		c-1.9,0.1-3.9-0.2-5.6-0.6c-3.6-0.8-6.1-1.8-8.1-2.1c-1-0.1-1.9-0.2-2.9-0.1c-0.5,0-1,0.1-1.5,0.2c-0.4,0.1-1.1,0.2-1.4,0.3
		c-1.3,0.4-2.9,1.6-4.9,3.4c-1.9,1.8-4.1,4.1-7,6.3c-2.9,2.2-7,4-11.2,4.2c-4.1,0.3-8.3-0.9-11.4-2.5c-3.2-1.6-5.8-3.6-8.2-5.5
		c-4.7-3.7-8.8-7.2-12.6-8.4c-3.2-1.2-8,0-13,2c-5.1,1.9-10.7,4.7-17.6,5.9c-1.7,0.3-3.5,0.4-5.2,0.4l-4.5-0.1
		c-3-0.1-5.9-0.2-8.8-0.4c-5.8-0.3-11.4-0.6-16.9-0.5c-5.5,0.1-10.8,0.9-16.9,1.5c-3,0.3-6.3,0.5-9.5,0.3c-3.1-0.1-6.4-0.6-9.1-1
		c-5.6-0.8-11.2-1.3-16.9-1.6c-11.3-0.7-22.8-0.7-34.4-0.7c-23.1-0.1-47-0.3-70.2-6.5l1.3,0.2l-338.9,2.4l-169.5,1.1l-169.5,0.8
		l169.4-3.8l169.4-3.4l338.8-6.6c0.4,0,0.8,0,1.2,0.1l0.1,0c21.7,5.6,44.7,5.6,67.8,5.4c11.6-0.1,23.2-0.2,35,0.4
		c5.9,0.3,11.8,0.8,17.7,1.5c5.8,0.8,10.6,1.2,16,0.5c5.5-0.6,11.6-1.6,17.7-1.7c6.1-0.2,12,0.1,17.8,0.4c2.9,0.1,5.7,0.2,8.5,0.3
		l4.2,0c1.1,0,2.2-0.1,3.4-0.3c4.7-0.8,9.6-3.1,15.2-5.4c2.8-1.1,5.9-2.2,9.4-2.9c0.9-0.1,1.8-0.3,2.7-0.4c0.9,0,1.8-0.1,2.8-0.1
		c2,0,4,0.4,5.8,1c7.4,2.4,12,7,16.5,10.2c2.2,1.7,4.3,3.2,6.2,4.1c2,1,3.6,1.4,5.3,1.2c1.7-0.1,3.1-0.7,4.8-2
		c1.7-1.3,3.5-3.2,5.8-5.4c2.3-2.1,5.2-4.8,9.4-6.2c1.1-0.4,1.9-0.5,2.8-0.7c0.9-0.2,1.9-0.3,2.8-0.4c1.9-0.2,3.9-0.1,5.8,0.2
		c3.7,0.6,6.6,1.7,8.7,2.1c1.1,0.2,2,0.3,3,0.3c0.5,0,0.9-0.1,1.4-0.1c0.5-0.1,1.1-0.2,1.7-0.3c4.7-1,9.6-3.4,15.5-5.6
		c3-1.1,6.2-2,9.7-2.5c1.8-0.2,3.3-0.3,4.8-0.4c1.5,0,3.1-0.1,4.6-0.1c12.3,0,23.6,1.9,34.2,1c1.3-0.1,2.6-0.2,4-0.4l4.6-0.5
		c3.1-0.3,6.3-0.4,9.5-0.3c6.3,0.2,12.6,1.2,18.4,2.5c11.7,2.7,22.1,5.4,32.6,4.9c4.9-0.1,9.7-1.5,15.5-3.1
		c5.7-1.6,12.4-3.1,19.2-2.8c6.6,0.3,12.7,1.6,18.4,2.9c5.7,1.3,11.2,2.8,16.3,3.5c10.1,1.6,21-0.6,33.5-0.9c1.5,0,3.1,0,4.7,0
		l2.4,0.1c0.9,0.1,1.8,0.1,2.7,0.3c3.6,0.5,6.8,1.5,9.5,2.4c2.7,0.8,4.9,1.5,7,1.6c1,0.1,2,0.1,3,0l1.3-0.2c-0.4,0.1-0.4,0.1-0.2,0
		c0.3-0.2,1.2-0.9,2.3-1.9c1.1-1,2.4-2.3,4.7-3.6c0.6-0.3,1.3-0.6,2-0.9l1.2-0.4l0.7-0.2c0.8-0.2,1.6-0.4,2.4-0.5
		c1.6-0.3,3.3-0.6,5-0.7c3.4-0.3,6.7-0.2,9.7,0c3,0.2,5.6,0.3,8.2,0.3c1.3,0,2.6-0.1,3.8-0.2c1.1-0.1,2.1-0.3,3.3-0.5
		c2.4-0.5,5.1-1.3,7.9-2.2c2.8-0.8,5.8-1.7,9.5-2.2c0.9-0.1,1.9-0.2,3-0.2l2.6,0c1.7,0.1,3.5,0.2,5.4,0.6c3.7,0.6,7.3,2.2,9.9,3.4
		c2.6,1.3,4.5,2,6.8,2.6l1.7,0.4c0.5,0.1,0.9,0.1,1.4,0.2c1,0.1,2.1,0.1,3.3,0c2.4-0.1,5.2-0.5,8.4-0.8c3.1-0.3,7.1-0.4,10.9,0.5
		c3.5,0.8,6.8,2.1,9.7,3.4c5.8,2.8,10.4,5.7,15,7.2c1.1,0.4,2.2,0.7,3.3,1l0.8,0.2l1,0.2l2.1,0.4c2.8,0.5,5.6,1.1,8.4,1.5
		c5.6,0.9,11.3,1.7,16.9,2.5c22.6,2.8,45.4,4.2,68.1,3.5c11.3-0.4,22.6-1.3,33.7-2.9c5.6-0.8,11-1.9,16.4-3.1l4-1
		c1.3-0.3,2.8-0.7,3.8-1c2.2-0.7,4.4-1.6,6.8-2.9c2.4-1.2,5-2.7,8.2-4.1c3.2-1.4,7.1-2.5,11-2.7c3.9-0.2,7.7,0.3,11.1,1.3
		c3.5,0.9,7.4,2.6,10.3,4.8c3,2.2,5,4.1,6.4,4.9c1.4,0.8,2.6,1.2,4.7,1.3l1.6,0c0.6,0,1.3,0,1.9-0.1c1.3,0,2.6-0.2,3.9-0.3
		c2.6-0.2,5.2-0.6,7.8-1.2c10.5-2.1,21.1-6.2,32.8-9.4c1.5-0.4,2.9-0.8,4.4-1.2c0.7-0.2,1.7-0.4,2.4-0.5l2.2-0.5l8.6-1.7l8.7-1.6
		c1.5-0.3,2.8-0.5,4.7-0.8c2.4-0.2,2.9,0,4,0c0.9,0.1,1.9,0.2,2.8,0.4c3.6,0.7,6.5,1.7,9.3,2.6c2.7,0.9,5.2,1.6,7.4,2
		c1.1,0.2,2.2,0.3,3.2,0.4l0.7,0l0.3,0c0,0-0.1,0-0.1,0c-0.1,0-0.1,0-0.1,0c0,0,0,0,0.1-0.1c0.8-0.3,3.2-2,5.9-3.8
		c2.7-1.8,6.4-4,11.2-4.6l1.8-0.2l1.6,0c1.1,0,2.2,0.2,3.3,0.3c2.1,0.4,4.2,1,6,1.8c3.7,1.5,6.3,3.4,8.6,4.7c2.2,1.4,3.8,2,4.9,2.1
		l-8.3,4.5c0.4-0.7,0.9-1.5,1.4-2.1c0.4-0.5,0.9-0.9,1.3-1.3c0.4-0.3,0.7-0.5,1.1-0.8c0.3-0.2,0.6-0.3,0.9-0.5
		c1.1-0.6,2-0.9,2.8-1.1c1.5-0.4,2.8-0.7,4-0.9c2.4-0.4,4.6-0.5,6.7-0.7c4.3-0.2,8.4-0.3,12.4-0.2c8.1,0.1,16.2,0.4,24.2,0.8
		l23.8,1.4c3.5,0.2,7.7,0.2,11.6,0.3l11.9,0.2l47.6,1l23.8,0.6l11.9,0.3l6,0.2l3,0.1l1.5,0.1l0.8,0l0.5,0l0.3,0l0.3,0l0.5,0.1
		c-2,2.4,2.9-6.6,6.3,11.1l-10-10.9c8.9-2.6,18.3-6.4,28.7-8.9c5.2-1.2,10.7-2.3,17-2c6.7,0.3,12.4,2.6,16.6,4.1
		c1.1,0.4,2,0.7,2.8,0.9c0.4,0.1,0.7,0.2,1.1,0.2l1.7,0.3c2.3,0.3,4.7,0.6,7,0.8c4.7,0.5,9.4,0.7,14.1,0.8c2.4,0,4.7,0,7.1,0
		l3.6-0.1l1.8-0.1c0.3,0,0.7-0.1,1.1-0.1c1.8-0.3,4.1-0.8,6.5-1.3c1.2-0.3,2.5-0.6,3.9-0.8c1.5-0.3,3-0.5,5.1-0.6l-4.7,1.5
		c2-1.4,4.9-2.7,8.1-2.9c3.3-0.2,6.4,0.9,8.5,2.1c2.2,1.3,3.8,2.7,5.1,4.1c1.3,1.4,2.4,2.8,3.4,4.2l-11.3-2.3
		c4.5-2.9,9.6-4.9,14.8-6l0.1,0c0.9-0.2,1.9-0.2,2.8-0.1c7,1,12.2,3.4,16.6,4.4c1.1,0.3,2.1,0.4,3.1,0.6c0.5,0.1,1,0.1,1.4,0.1
		c0.4,0,1.2,0,1.9,0.1c2.6,0.1,5.3,0.1,7.5,0c0.6,0,1.1-0.1,1.4-0.1c0.1,0,0.1,0,0.1,0c0,0,0.1,0-0.1,0l-0.5,0.2
		c-0.2,0.1-0.9,0.4-1.6,0.9c-0.6,0.4-0.9,0.8-1.4,1.5c-0.5,0.7-0.9,1.5-1.2,2.3c-0.5,1.8-0.3,2.3-0.3,2.5c0-0.2-0.1-0.7,0-2
		c0.1-0.5,0.2-1.3,0.5-2c0.2-0.7,0.6-1.4,1-2c0.4-0.7,0.7-1,1.2-1.5c0.2-0.2,0.4-0.4,0.6-0.6l0.5-0.4c0.3-0.2,0.7-0.5,1-0.7l0.7-0.4
		c0.6-0.3,0.9-0.4,1.3-0.6c0.4-0.2,0.7-0.3,1-0.4c2.4-0.7,3.9-0.9,5.5-1.1l2.3-0.2c0.5,0,0.5-0.1,0.6-0.1c0.1,0,0.2,0,0.3,0
		c0.3-0.1,0.3,0,1-0.5c0.6-0.4,2.2-1.8,5-3c1.4-0.6,2.9-0.9,4.4-1c1.4-0.1,2.7-0.1,4.1,0.2c2.6,0.5,4.7,1.4,6.4,2.3
		c3.3,1.8,5.6,3.7,7.7,5.1c2,1.5,3.9,2.4,4.1,2.4l1.2,0.1l1.9,0.2l3.9,0.3l8,0.4c5.4,0.2,10.8,0.4,16.1,0.5
		c5.3,0.1,10.8,0.1,15.7-0.1l1.7-0.1c0.4,0,1.1-0.2,0.4,0c-0.7,0.3-0.2,0.1-0.1,0c0.2-0.1,0.3-0.1,0.5-0.2c0.3-0.2,0.6-0.4,1-0.6
		c1.3-0.9,2.5-2.2,3.7-3.8c2.4-3.3,4.3-7.8,5.9-12.5c1.6-4.8,3-9.9,4.6-15.4l4.9-15.7c6.4-20.7,12.4-41.6,17.9-62.6
		c22.1-84,36.6-162.6,53.8-248.2l0,0c0.9-4.3,10.5-13.4,10.5-13.4s5.6,12,5,16.2c-14.2,91.6-26.3,176.1-32.9,268.4l-1.2,17.4
		l-1.4,17.3c-0.8,11.4-1.3,22.7-0.2,33.5c0.3,2.7,0.7,5.3,1.2,8.1c0.5,2.8,1,5.5,1.7,7.9c0.3,1.1,0.7,2.2,1,2.7
		c0.3,0.7,0.3,0.4,0.1,0.3c-0.2-0.1,0.1,0.1,1.1,0.1c0.9,0.1,2.1,0,3.4-0.1c5.4-0.4,11.4-1.2,17.5-1.5c6.1-0.3,12.1-0.2,18,0
		l17.4,0.8c2.8,0.1,5.7,0.2,8.5,0.2l4.2,0l2.4,0l2.5,0.1c3.2,0.2,6.1,0.6,8.9,0.9c1.4,0.1,2.7,0.2,3.8,0.3l0.4,0
		c-0.1,0-0.5,0-0.6,0.1c-0.3,0-0.4,0.1-0.3,0.1c0.1,0,0.6-0.3,1.2-0.6c1.2-0.6,2.7-1.7,5.8-2.5c0.7-0.2,1.9-0.3,2.3-0.3l1.3,0l2.3,0
		l8.8,0.3c11.7,0.5,23.2,1.2,34.9,1.9l17.4,1.1l8.7,0.6l4.4,0.4l2.3,0.2l1.2,0.1l0.7,0.1l0.6,0.1l0.5,0.1c0.7,2.7-0.5-5.8,4.7,7.6
		l-8-7.5c13.2-4,27-5,40.2-4.9c13.3,0.1,26.2,1.2,38.6,1.1l38.7-1.1l19.4-0.6l9.7-0.2l4.9-0.1l2.5,0l1.3,0l0.8,0l0.5,0l0.6,0.1
		l0.4,0.1c-0.3-0.1,1.6,0.4,2.3,1.1c1,0.7,1.6,1.8,1.9,2.6l-5-3.8c2.2,0.2,3.6,0.5,5.3,0.8l4.8,0.9l9.6,1.7c6.3,1.1,12.7,2.2,19,3.1
		c6.3,0.9,12.6,1.6,18.8,1.9c3,0.1,6.1,0.1,8.7-0.3c1.3-0.2,2.5-0.5,2.9-0.8c0.2-0.1,0.1-0.1-0.2,0.3c-0.3,0.5-0.4,1.2-0.3,1.3
		l8.3-5.3c3.6,2.3,8.9,3.6,14.2,4.2c5.4,0.6,11,0.7,16.6,0.5c11.2-0.5,22.6-2,33.8-4.1l0.3,10l-1.4-0.2l-0.3,0c0,0,0,0,0,0l0.2,0
		l0.1,0c-0.2,0,0.4,0,1-0.1c0.5-0.1,1-0.3,1.4-0.6c3.7,1.6,0.6-12.6,0-8.6c-0.3-0.2-0.5-0.3-0.8-0.4l-0.1-0.1l-0.1,0c0,0,0,0,0,0
		l0.3,0.1l2.9,0.6l6,1.1l12,2.1l1.5,0.2l0.3,0c0,0,0,0,0,0c-0.1,0-0.2,0-0.1,0l0.2,0l0.7,0c0.9,0.1,1.9,0.1,2.8,0.1
		c1.9,0.1,3.9,0.1,5.9,0c4,0,8.1-0.1,12.3-0.1c2.1,0,4.2,0.1,6.4,0.2l1.6,0.1c0.5,0,1.6,0.2,2.1,0.3c1.3,0.3,2.3,0.6,3.3,0.9
		c4.1,1.2,7.9,2.7,11.7,3.9c0.9,0.3,1.9,0.6,2.5,0.8c0,0,0.3,0.1,0,0c-0.2-0.1-0.8,0-0.7,0l0.6-0.1c0.4,0,0.8-0.1,1.1-0.2
		c1.5-0.3,2.7-0.8,4-1.6c1.3-0.8,2.8-2.1,4.7-3.5c1.9-1.4,4.5-2.7,7.2-3.3l-2.9,2c1.2-1.9,2.8-3.6,4.6-5c1.8-1.4,3.9-2.4,6-3l0,0
		c0.6-0.2,1.2-0.2,1.8-0.2c3.6,0.4,7.2,1.5,10.5,3.4c3.2,1.9,6,4.5,8.1,7.4l-3.4-1.8c4.2,0.1,8-0.9,12.3-2.9c4.2-1.9,9.3-4.6,15-5.2
		c5.4-0.7,11-0.4,16.2,1.1c5.2,1.4,9.8,3.6,14.1,5.1c4.3,1.6,8.6,2.4,13.1,2.4c2.2,0,4.5-0.2,6.7-0.5c2.1-0.3,4.8-0.9,7.2-1.3
		c10-1.5,19.9-1.7,29.5-2.5l0,0l0.3,0l232.7,1.7l116.3,0.9L3713.5,1037.4z"/>
	<g>
		<g>
			<path d="M809.3,801.9c-15.4-7.9-3.4-10.9-16.1-19.5c-12.7-8.6-28-9.3-28-9.3c0,0,0,0,0,0c0,0,0,0,0,0c-3.7-0.1-11.3,0.5-19,2.5
				c-1.1,0.3-2.2,0.6-3.3,0.9c-5.5,1.7-10.7,4.2-14.5,7.8c-2.2,2.2-3.9,4.7-4.8,7.7c-0.2,0.7-0.4,1.4-0.5,2.1c0,0.1-0.1,0.3-0.1,0.4
				c-0.3,1.2-0.5,2.3-0.6,3.5c0,0.1,0,0.2-0.1,0.4c-0.2,1.2-0.3,2.5-0.4,3.7c0,0.1,0,0.1,0,0.2c-0.1,1.4-0.2,2.8-0.2,4.3
				c0,0.1,0,0.2,0,0.3c0,1.3,0,2.7,0,4c0,0.1,0,0.3,0,0.4c0.1,1.4,0.2,2.7,0.3,4.1c0,0.2,0,0.3,0.1,0.5c0.1,1.4,0.3,2.7,0.6,4.1
				c0,0.1,0,0.2,0.1,0.4c0.1,0.5,0.3,1,0.3,1.5c0,0,0,0,0,0c2.3,11.2,7.7,21.1,17.7,24c3.8,1.1,7.2,3.5,10.7,5.4
				c3.8,2,7.7,3.8,11.8,5c2.7,0.8,5.5,1.4,8.4,1.8c2.5,0.3,5.3,0.2,7.8,0.7c6.2-3.4,11.8-7.8,18.1-11c1.3-0.7,2.7-1.3,4.1-1.8
				c6.6-2.6,7.3-4,6.3-4.7c-0.8-0.6,0.2-0.7,2.1-0.7c2.4,0,5.1,0,7.7-0.2c8.2-0.4,14.6-14.6,15-18.4
				C832.9,818.4,824.7,809.8,809.3,801.9z"/>
		</g>
		<path class="st11" d="M129.1,208.6c0,0-0.1,0-0.1,0c-6.7-1.6-14-0.7-20,2.7c-0.9,0.5-1.8,1.4-2.8,1.6c0.4-1.6,2.3-2.9,3.6-3.9
			c3.1-2.3,6.2-4.6,9.6-6.5c13.8-8,30.5-10.2,46.2-9.2c43.1,2.9,85.6,27.5,119.3,53c111,84,183,202.5,196.5,207
			c13.5,4.5,12,19.5,25.5,46.5c13.2,26.3,114.7,225.1,162.9,265.6c0.4,0.3,0.6,0.7,0.8,1.2c0.1,0.2,0.1,0.4,0.1,0.6
			c0.1,0.2,0.2,0.3,0.2,0.5c0.1,0.5,0.1,1.3-0.3,1.8c-0.2,0.3-0.3,0.6-0.6,0.8c-0.2,0.2-0.4,0.3-0.6,0.4c-0.3,0.2-0.5,0.4-0.8,0.5
			c-0.1,0-0.2,0-0.3,0c-0.3,0-0.4,0.2-0.7,0.3c-0.6,0.3-1.4,0.3-2.1,0.3c-0.6,0-1.1,0.1-1.7,0.1c-0.7,0-1.3,0-2,0
			c-0.7,0-1.4,0-2.1,0c-1,0-1.9,0.1-2.9,0c-1-0.1-2-0.5-3-0.8c-0.7-0.2-1.4-0.3-2-0.5c-0.8-0.2-1.6-0.6-2.4-0.8
			c-1.2-0.3-2.3-0.7-3.4-1.2c-0.7-0.3-1.4-0.6-2.1-1c-0.3-0.2-0.6-0.4-1-0.5c-0.4-0.1-0.7-0.2-1-0.4c-1.1-0.5-2-1.2-3-1.9
			c-0.9-0.6-1.7-1.1-2.7-1.5c-1.5-0.6-2.8-1.7-4.3-2.4c-0.4-0.2-0.8-0.3-1.2-0.6c-0.4-0.3-0.8-0.7-1.3-1c-0.6-0.5-1.3-0.8-1.9-1.2
			c-0.6-0.4-1-0.9-1.6-1.3c-0.4-0.2-0.4-0.2-0.8-0.3c-0.2,0-0.4-0.1-0.5-0.2c-0.3-0.2-0.6-0.4-0.9-0.6c-0.3-0.2-0.7-0.4-1.1-0.6
			c-0.4-0.3-0.8-0.6-1.3-0.8c-0.4-0.3-0.9-0.5-1.4-0.7c-1-0.5-1.9-1.1-2.8-1.6c-1.1-0.7-2.1-1.4-3.2-2c-2.1-1.1-4.3-2.1-6.4-3.2
			c-0.9-0.5-1.8-0.9-2.7-1.4c-0.4-0.2-0.8-0.5-1.2-0.7c-0.4-0.2-0.8-0.4-1.1-0.8c-0.5-0.5-0.9-0.9-1.4-1.3c-0.6-0.4-1.3-0.8-2-1.2
			c-0.8-0.5-1.7-1.1-2.5-1.5c-0.6-0.3-1.2-0.6-1.9-0.9c-1.3-0.6-2.4-1.6-3.7-2.3c-1.4-0.8-2.9-1.4-4.4-2.1c-0.6-0.3-1.2-0.5-1.9-0.7
			c-1.1-0.3-2.2-0.4-3.3-0.8c-0.6-0.2-1.1-0.5-1.6-0.8c-0.3-0.2-0.5-0.4-0.9-0.5c-1.4-0.5-2.9-0.9-4.3-1.6c-1-0.5-2.1-0.8-3.1-1.1
			c-0.2-0.1-0.3-0.1-0.5-0.1c-0.4,0-0.8,0-1.2,0c-1.4,0-2.8-0.3-4.2-0.4c-1.1-0.1-2.3-0.2-3.4-0.2c-0.4,0-0.7-0.1-1-0.1
			c-0.6-0.1-1.1-0.1-1.7-0.1c-0.8,0-1.6,0-2.4,0c-0.7,0-1.4-0.1-2.1,0c-0.4,0-0.6,0.2-0.9,0.4c-0.4,0.2-0.9,0.2-1.3,0.3
			c-0.3,0.1-0.6,0.2-0.9,0.3c-0.7,0.2-1.3,0.3-2,0.4c-0.5,0.1-1.1,0.3-1.6,0.4c-0.6,0.1-1.1,0.4-1.7,0.6c-0.3,0.1-0.6,0.1-0.9,0.2
			c-0.6,0.2-1.2,0.5-1.9,0.6c-0.3,0.1-0.4,0.1-0.8,0.3c-0.3,0.2-0.7,0.4-1,0.6c-0.6,0.3-1,0.5-1.5,0.9c-0.7,0.6-1.3,1.2-2,1.9
			c-0.3,0.3-0.5,0.7-0.8,1.1c-0.3,0.4-0.6,0.7-0.8,1.1c-0.4,0.8-0.6,1.7-1,2.5c-0.2,0.5-0.6,1.2-0.8,1.8c-0.1,0.5-0.1,1.1-0.2,1.6
			c-0.1,0.6-0.2,1.1-0.2,1.7c0,0.3,0,0.6,0,1c0,0.7,0.3,1.3,0.5,1.9c0.6,2,1.4,3.9,2.5,5.6c0.4,0.7,0.9,1.3,1.3,1.9
			c0.5,0.7,0.9,1.4,1.4,2.1c0.6,0.8,1.1,1.7,1.7,2.5c0.6,0.8,1.3,1.5,1.9,2.3c0.5,0.6,1,1.2,1.4,1.9c0.8,1.2,1.4,2.6,2,3.9
			c0.4,0.8,0.9,1.5,1.3,2.3c0.4,0.7,0.6,1.5,0.9,2.2c0.2,0.6,0.4,1.3,0.7,1.9c0.2,0.4,0.4,0.9,0.6,1.3c0.4,1,0.4,2.1,0.4,3.1
			c0,0.9,0.1,1.7,0.1,2.6c0,1.4,0,2.8-0.3,4.1c-0.2,0.7-0.2,1.4-0.4,2.1c-0.1,0.4-0.2,0.8-0.3,1.3c-0.1,0.4-0.3,0.8-0.4,1.2
			c-0.1,0.4-0.1,0.8-0.2,1.2c-0.1,0.3-0.2,0.5-0.3,0.7c-0.2,0.4-0.1,1-0.3,1.4c-0.1,0.2-0.3,0.5-0.4,0.7c-0.1,0.3-0.1,0.6-0.2,0.9
			c-0.1,0.7-0.4,1.3-0.5,1.9c-0.1,0.6-0.4,1.2-0.6,1.8c-0.2,0.6-0.3,1.2-0.5,1.8c-0.1,0.3-0.2,0.5-0.4,0.8c-0.3,0.4-0.4,1-0.6,1.4
			c-0.2,0.5-0.4,1.2-0.6,1.7c-0.2,0.5-0.6,0.9-0.9,1.3c-0.4,0.6-0.8,1.2-1.2,1.8c-0.7,1-1.4,2-2.1,3c-0.9,1.3-1.6,2.6-2.4,3.9
			c-1.2,1.8-2.5,3.5-3.8,5.3c-0.5,0.6-1,1.2-1.5,1.9c-0.5,0.7-1,1.4-1.6,2c-1.1,1.2-2.2,2.3-3.3,3.4c-1,1-2.2,1.7-3,2.8
			c-0.5,0.7-0.9,1.4-1.4,2c-0.4,0.4-0.6,0.9-1,1.3c-0.3,0.3-0.6,0.5-0.8,0.8c-0.6,0.5-1.2,1-1.8,1.5c-0.6,0.6-1.4,1.3-1.8,2.1
			c-0.2,0.5-0.4,0.9-0.6,1.4c-0.4,0.6-0.9,1.2-1.3,1.8c-0.4,0.6-0.8,1.3-1.2,1.9c-0.7,1-1.4,1.9-2.1,2.9c-0.7,1-1.6,1.8-2.4,2.7
			c-0.9,1-1.7,2-2.5,3.1c-0.9,1.1-1.8,2.2-2.8,3.3c-0.9,0.9-1.5,2-2.5,2.9c-0.6,0.6-1.3,1.2-1.9,1.8c-1.5,1.4-3,2.6-4.5,3.9
			c-1.4,1.3-2.7,2.6-4.3,3.7c-1.2,0.8-2.4,1.7-3.5,2.7c-0.5,0.4-0.9,0.9-1.5,1.2c-0.4,0.3-0.9,0.5-1.3,0.8c-0.7,0.4-1.3,1-1.8,1.5
			c-1,0.9-2,1.8-3,2.6c-1.1,0.9-2.3,1.8-3.4,2.7c-1.6,1.1-3.3,2-4.8,3.1c-1.3,1-2.5,2-3.8,2.9c-2,1.3-3.8,2.9-5.7,4.4
			c-1.5,1.1-3.1,2.2-4.6,3.3c-1.3,0.9-3,1.3-4.2,2.4c-0.5,0.4-1,0.9-1.4,1.4c-0.3,0.3-0.6,0.5-0.9,0.7c-0.7,0.4-1.3,0.9-2,1.3
			c-0.7,0.5-1.5,1.1-2.2,1.6c-1.3,1-2.7,1.8-4,2.8c-2.1,1.6-4.2,3.1-6.2,4.8c-1.3,1.1-2.4,2.2-3.6,3.3c-1.1,1.1-2.3,2-3.2,3.2
			c-1,1.3-2.1,2.6-3.2,3.9c-1.1,1.2-1.9,2.7-2.9,4c-0.6,0.8-1.1,1.7-1.6,2.6c-0.3,0.5-0.5,0.8-0.8,1.2c-0.2,0.3-0.3,0.7-0.5,1
			c-0.3,0.6-0.8,1.1-1.2,1.6c-0.8,1-1.4,2.5-1.9,3.7c-0.9,2-1.9,4.1-2.2,6.3c-0.1,0.6-0.1,1.1-0.2,1.7c-0.1,0.6-0.3,1.2-0.3,1.8
			c-0.1,1.1,0,2.1-0.1,3.2c-0.1,1.1-0.1,2.3-0.1,3.4c0,1.4-0.1,2.9-0.1,4.3c0,0.5,0.1,1-0.1,1.4c-0.1,0.3-0.3,0.6-0.3,0.9
			c0,0.2,0,0.5,0,0.7c-0.1,0.8,0,1.6-0.3,2.3c-0.2,0.6-0.4,1.1-0.5,1.7c-0.1,0.5-0.4,1-0.5,1.6c-0.1,0.4-0.1,0.8-0.3,1.2
			c-0.2,0.4-0.6,0.8-0.8,1.2c-0.1,0.3-0.2,0.7-0.5,1c-0.2,0.3-0.3,0.6-0.4,0.9c-0.3,0.4-0.7,0.7-0.9,1.2c-0.3,0.5-0.3,1.1-0.7,1.5
			c-0.1,0.1-0.2,0.1-0.2,0.3c-0.1,0.2,0,0.5-0.2,0.7c-0.1,0.1-0.2,0.2-0.3,0.4c-0.2,0.3-0.2,0.6-0.4,0.9c-0.2,0.3-0.4,0.6-0.6,0.9
			c-0.2,0.4-0.5,0.8-0.8,1.1c-0.2,0.1-0.2,0.3-0.4,0.4c-0.1,0.1-0.2,0.1-0.2,0.1c-0.1,0.1-0.1,0.3-0.2,0.5c-0.2,0.4-0.5,0.6-0.7,1
			c-0.2,0.3-0.3,0.5-0.5,0.8c-0.3,0.5-0.6,1-0.9,1.5c-0.6,1-1.2,1.9-1.9,2.8c-11.7,15.8-37,28.7-54.2,38c-25.7,14-54.3,25-83.8,26.7
			c-2.4,0.1-5.1,0.1-6.8-1.6c1.2-0.6,2.6-1.4,2.8-2.8c0.3-2.1-2.4-3.2-4.5-3.5c-4.5-0.6-9.2-0.8-13.7-0.2c-0.8,0.1-1.7-0.1-2.5-0.3
			c-3.3-0.6-6.6-1.8-10.1-1.8c30.9-8.4,59.5-24.5,63.1-60.5c0.5-5.5,0.4-11.1,1.7-16.4c1.2-5.1,3.6-9.9,5.8-14.7
			c13.5-29.4,19.1-62.6,22-94.6c1.3-15.3,1.7-30.8-0.5-46c-9.7-67.5-28.5-169.5-159.7-217.4c-7.5-0.7,26.2-85.5,18.7-153.7
			c-7.5-68.2-59.2-91.5-59.2-97.5s30.7-42,29.2-69c-0.8-14.2-1.6-29.9-8.3-42.7C140.1,215.2,135.4,210.2,129.1,208.6z"/>
		<path d="M657.7,848.7c-29.3-17.4,37.7-52,12.5-82.5c0.7,1.4,0,3.2-1.7,3.6c-15.1,3.5-24.5-8.8-46.3-21.5c-24-14-63-36-87-20
			c-24,16,30,50-2,83c-32,33-24,37-46,48s-51,39-66,59c-12.8,17-0.2,48.5-27,69.8c13.4-8.1,27-15.5,65.2-21.9
			c53.8-8.9,42.7-16.5,105.7-28.5s105.3-34,105.3-34C662.2,908.6,687.2,866.1,657.7,848.7z"/>
		<g>
			<path class="st12" d="M900,563.1c-0.7-0.7-1.2-1.6-1.4-2.5c-0.8-3.9,3.4-6.2,6.4-7.1c1.7-0.5,3.4-0.8,5.2-1.1
				c-2.1,0-4.2-0.3-6.4-0.2c-2.4,0.2-4.8,0.6-7.1,1.1c-4.7,1.1-9.2,2.7-13.5,4.7c-12.3,5.6-23.6,13.1-35.5,19.4
				c-3.8,2-7.6,3.8-11.5,5.6c-1.9,0.9-3.9,1.8-5.8,2.7c-1,0.5-2,0.9-3,1.4c-0.7,0.3-2,1.3-2.7,1.3c-14.8,7.1-29.5,14.2-44.3,21.4
				C686.8,655.7,634,722.5,634,722.6c13.3,19.1,25.7,34.4,35.7,42.8c0,0,18.1,3.7,39.6,0c14.4-2.5,30.3,0.1,42.2,3.2
				c0,0-3.2-9,21-53.3c24.1-44.2,86.5-99.4,98.8-112.1c12.4-12.7,21-0.7,34.1-12c1.6-1.4,3-3,4-4.9c1.1-2.2,1.6-4.7,1.4-7.1
				c-0.2-2.3-1-4.6-2.1-6.7c-1.7-3.2-3.8-5.7-6.7-7.9C901.2,564.2,900.6,563.7,900,563.1z"/>
		</g>
		<path d="M751.6,778.1c-0.1-0.1-0.3-0.3-0.4-0.4c-0.7-0.9-1.5-1.7-2.2-2.6c-1-1.2-2.1-2.4-2.4-4c-0.6-2.7,2.6-3.6,2.2-5.6
			c-0.1-0.4-0.4-0.9-0.6-1.2c-0.4-0.6-1.5-1.1-0.4-1.8c0.4-0.2,0.8-0.3,1.3-0.3c4.8-0.2,9.7,0.2,14.4,1.2c1.8,0.4,3.5,0.8,5.2,1.6
			c3.3,1.7,11.9,10.1,7.4,14.1c-0.7,0.6-1.6,0.9-2.5,1.1c-6.3,1.4-12.8,0.3-19.1-0.7c-0.7-0.1-1.4-0.2-2-0.6
			C752.1,778.6,751.9,778.4,751.6,778.1z"/>
		
			<ellipse transform="matrix(0.1047 -0.9945 0.9945 0.1047 -87.1459 1490.1553)" class="st3" cx="784.1" cy="793.5" rx="6.5" ry="7.7"/>
		<path class="st4" d="M778.9,793.6c0.2-0.1,0.3-0.3,0.4-0.5c0.7-1,1.2-2,2.3-2.6c1.1-0.7,2.4-0.9,3.7-0.7c0.5,0.1,1.6,0.4,1.6-0.5
			c0-0.7-0.9-1-1.4-1.1c-1.8-0.4-3.8-0.2-5.3,0.8c-0.6,0.4-1.2,1-1.6,1.6c-0.5,0.8-0.7,1.6-0.6,2.6
			C778.1,793.5,778.4,793.8,778.9,793.6C778.9,793.6,778.9,793.6,778.9,793.6z"/>
		<path class="st5" d="M669.6,765.4c0,0,18.1,3.7,39.6,0s46.5,3.8,56,7.8c-8.6-0.1-37,3-41.5,19c-4.5,16-2.5,48.5,17,54
			c3.8,1.1,7.2,3.5,10.7,5.4c3.8,2,7.7,3.8,11.8,5c2.7,0.8,5.5,1.4,8.4,1.8c2.7,0.4,5.2,0,7.8,0.7c0,0-0.4,0.4-0.5,0.4
			c-0.2,0.2-0.4,0.3-0.7,0.4c-4.7,2-9.5,3.6-14.5,4.5c-1.9,0.4-3.8,0.6-5.7,0.8c-1.1,0.1-2.2,0.2-3.4,0.3c-1.7,0.1-3.4,0.2-5,0.3
			c-6.4,0.3-12.7,1.4-18.6,3.6c-7.4,2.8-14.1,7.2-19.7,12.8c-23,23-32.4,16.5-40.7,21.5c-8.3,5,16.7-37.5-12.8-55
			C628.2,831.2,696.6,796,669.6,765.4z"/>
		<path d="M737.7,771.2c0,0-2.6-9.7-13.1-10.1c-10.5-0.4-13.5-2.6-17.1-3.4c-3.6-0.7-4.6,3.7-2.6,5.5s3.7,7.5,7.2,8.6
			c3.5,1.1-3.6,10.5,5.6,10.6C727,782.5,740.6,777.5,737.7,771.2z"/>
	</g>
</g>
</svg>
